<svg xmlns="http://www.w3.org/2000/svg" width="1762.968" height="1012" viewBox="0 0 1762.968 1012">
  <g id="Group_11" data-name="Group 11" transform="translate(0 1219)">
    <g id="migration-box">
      <path id="Path_1" data-name="Path 1" d="M0-506.318H357.728V-845H0Z" transform="translate(0 -63.5)" fill="red"/>
      <g id="Group_1" data-name="Group 1" transform="translate(66.257 -839.5)">
        <text id="Human_movement_labelled_migration_" data-name="Human movement labelled ‘migration’" transform="translate(-60 -17)" fill="#fff" font-size="49" font-family="Roboto-Regular, Roboto" letter-spacing="0.001em"><tspan x="93.122" y="45">Human </tspan><tspan x="56.413" y="102">movement </tspan><tspan x="87.66" y="159">labelled </tspan><tspan x="56.85" y="216" font-family="Roboto-Bold, Roboto" font-weight="700">‘migration’</tspan></text>
      </g>
    </g>
    <g id="dotted-circle" transform="translate(384.64 -1211.5)">
      <path id="Path_2" data-name="Path 2" d="M0,498.5C0,223.186,223,0,498.086,0S996.172,223.186,996.172,498.5,773.171,997,498.086,997,0,773.814,0,498.5Z" fill="none" stroke="red" stroke-linejoin="round" stroke-width="15" stroke-dasharray="30 30"/>
    </g>
    <g id="mobility-box">
      <path id="Path_3" data-name="Path 3" d="M1696-506.318h358.556V-845H1696Z" transform="translate(-291.588 -63.011)" fill="red"/>
      <text id="Human_movement_labelled_mobility_" data-name="Human movement labelled ‘mobility’" transform="translate(1411.257 -856.5)" fill="#fff" font-size="49" font-family="Roboto-Regular, Roboto" letter-spacing="0.001em"><tspan x="93.122" y="45">Human </tspan><tspan x="56.413" y="102">movement </tspan><tspan x="87.66" y="159">labelled </tspan><tspan x="72.088" y="216" font-family="Roboto-Bold, Roboto" font-weight="700">‘mobility’</tspan></text>
    </g>
  </g>
</svg>
