<svg xmlns="http://www.w3.org/2000/svg" width="588.044" height="141.081" viewBox="0 0 588.044 141.081">
  <g id="Group_46" data-name="Group 46" transform="translate(-680.961 -454)">
    <path id="Path_4" data-name="Path 4" d="M145.5-495.579H709.991v9.421H145.5ZM705.28-505l28.264,14.132L705.28-476.736Z" transform="translate(535.461 1071.817)" fill="#77933b"/>
    <path id="Path_5" data-name="Path 5" d="M733.544-536.579H169.053v9.421H733.544ZM173.764-546,145.5-531.868l28.264,14.132Z" transform="translate(535.461 1087.066)" fill="#77933b"/>
    <g id="Group_12" data-name="Group 12" transform="translate(888.855 453.762)">
      <text id="Enablement" transform="translate(0.145 27.238)" fill="#77933b" font-size="30" font-family="Arial-BoldMT, Arial" font-weight="700" letter-spacing="0em"><tspan x="0" y="0">Enablement</tspan></text>
    </g>
    <g id="Group_13" data-name="Group 13" transform="translate(825.136 488.935)">
      <text id="Migration_requires" data-name="Migration requires" transform="translate(0 22)" fill="#77933b" font-size="24" font-family="Arial-ItalicMT, Arial" font-style="italic" letter-spacing="0.001em"><tspan x="0" y="0">Migration requires</tspan></text>
    </g>
    <g id="Group_14" data-name="Group 14" transform="translate(1033.346 488.935)">
      <g id="Group">
        <text id="mobility" transform="translate(0 22)" fill="#77933b" font-size="24" font-family="Arial-ItalicMT, Arial" font-style="italic" letter-spacing="0.001em"><tspan x="0" y="0">mobility</tspan></text>
        <text id="_" data-name="," transform="translate(83.289 21)" fill="#77933b" font-size="23" font-family="Arial-ItalicMT, Arial" font-style="italic" letter-spacing="0.001em"><tspan x="0" y="0">,</tspan></text>
      </g>
    </g>
    <g id="Group_15" data-name="Group 15" transform="translate(779.531 519.083)">
      <text id="w" transform="translate(0 22)" fill="#77933b" font-size="24" font-family="Arial-ItalicMT, Arial" font-style="italic"><tspan x="0" y="0">w</tspan></text>
    </g>
    <g id="Group_16" data-name="Group 16" transform="translate(797.667 519.083)">
      <text id="hile_mobility_can_lead_to_migration" data-name="hile mobility can lead to migration" transform="translate(0 22)" fill="#77933b" font-size="24" font-family="Arial-ItalicMT, Arial" font-style="italic"><tspan x="0" y="0">hile mobility can lead to migration</tspan></text>
    </g>
  </g>
</svg>
