<svg xmlns="http://www.w3.org/2000/svg" width="658" height="128.501" viewBox="0 0 658 128.501">
  <g id="Group_45" data-name="Group 45" transform="translate(-654.582 -308.931)">
    <rect id="Rectangle_1" data-name="Rectangle 1" width="658" height="128" transform="translate(654.582 309)" fill="#fff"/>
    <path id="Path_6" data-name="Path 6" d="M737.865-746.579H709.6v9.421h28.264Zm-37.685,0H671.916v9.421H700.18Zm-37.685,0H634.231v9.421h28.264Zm-37.685,0H596.546v9.421H624.81Zm-37.685,0H558.861v9.421h28.264Zm-37.685,0H521.176v9.421H549.44Zm-37.685,0H483.491v9.421h28.264Zm-37.685,0H445.806v9.421h28.264Zm-37.685,0H408.121v9.421h28.264Zm-37.685,0H370.436v9.421H398.7Zm-37.685,0H332.751v9.421h28.264Zm-37.685,0H295.065v9.421h28.264Zm-37.685,0H257.38v9.421h28.264Zm-37.685,0H219.7v9.421h28.264Zm-37.685,0H182.01v9.421h28.264Zm-37.685,0H144.325v9.421h28.264Zm-37.685,0h-7.851v9.421H134.9Zm598.251,18.842,28.264-14.132L733.155-756ZM131.764-756,103.5-741.868l28.264,14.132Z" transform="translate(551.082 1165.168)" fill="#10243e"/>
    <g id="Group_17" data-name="Group 17" transform="translate(909.582 309.931)">
      <text id="Continuum" transform="translate(0 27)" fill="#10243e" font-size="30" font-family="Roboto-Bold, Roboto" font-weight="700" letter-spacing="-0.001em"><tspan x="0" y="0">Continuum</tspan></text>
    </g>
    <g id="Group_18" data-name="Group 18" transform="translate(757.582 345.104)">
      <text id="Fluid_mobilities_might_gradually_change_into" data-name="Fluid mobilities might gradually change into" transform="translate(0 22)" fill="#10243e" font-size="24" font-family="Roboto-Italic, Roboto" font-style="italic" letter-spacing="-0.002em"><tspan x="0" y="0">Fluid mobilities might gradually change into</tspan></text>
    </g>
    <g id="Group_24" data-name="Group 24" transform="translate(682.582 375.252)">
      <text id="more_stable_forms_of_migration_and_the_other_way_around" data-name="more stable forms of migration and the other way around" transform="translate(2 22)" fill="#10243e" font-size="24" font-family="Roboto-Italic, Roboto" font-style="italic" letter-spacing="0.001em"><tspan x="0" y="0">more stable forms of migration and the other way around</tspan></text>
    </g>
  </g>
</svg>
