<svg xmlns="http://www.w3.org/2000/svg" width="657.918" height="127.501" viewBox="0 0 657.918 127.501">
  <g id="Group_45" data-name="Group 45" transform="translate(-654.582 -309.931)">
    <path id="Path_6" data-name="Path 6" d="M737.865-746.579H709.6v9.421h28.264Zm-37.685,0H671.916v9.421H700.18Zm-37.685,0H634.231v9.421h28.264Zm-37.685,0H596.546v9.421H624.81Zm-37.685,0H558.861v9.421h28.264Zm-37.685,0H521.176v9.421H549.44Zm-37.685,0H483.491v9.421h28.264Zm-37.685,0H445.806v9.421h28.264Zm-37.685,0H408.121v9.421h28.264Zm-37.685,0H370.436v9.421H398.7Zm-37.685,0H332.751v9.421h28.264Zm-37.685,0H295.065v9.421h28.264Zm-37.685,0H257.38v9.421h28.264Zm-37.685,0H219.7v9.421h28.264Zm-37.685,0H182.01v9.421h28.264Zm-37.685,0H144.325v9.421h28.264Zm-37.685,0h-7.851v9.421H134.9Zm598.251,18.842,28.264-14.132L733.155-756ZM131.764-756,103.5-741.868l28.264,14.132Z" transform="translate(551.082 1165.168)" fill="#10243e"/>
    <g id="Group_17" data-name="Group 17" transform="translate(894.708 309.931)">
      <text id="Continuum" transform="translate(0 27)" fill="#10243e" font-size="30" font-family="Arial-BoldMT, Arial" font-weight="700" letter-spacing="-0.001em"><tspan x="0" y="0">Continuum</tspan></text>
    </g>
    <g id="Group_18" data-name="Group 18" transform="translate(734.075 345.104)">
      <text id="Fluid" transform="translate(0 22)" fill="#10243e" font-size="24" font-family="Arial-ItalicMT, Arial" font-style="italic" letter-spacing="-0.002em"><tspan x="0" y="0">Fluid</tspan></text>
    </g>
    <g id="Group_19" data-name="Group 19" transform="translate(795.47 345.104)">
      <text id="mobilities" transform="translate(0 22)" fill="#10243e" font-size="24" font-family="Arial-ItalicMT, Arial" font-style="italic" letter-spacing="0.001em"><tspan x="0" y="0">mobilities</tspan></text>
    </g>
    <g id="Group_20" data-name="Group 20" transform="translate(907.191 345.104)">
      <text id="might" transform="translate(0 22)" fill="#10243e" font-size="24" font-family="Arial-ItalicMT, Arial" font-style="italic" letter-spacing="0.001em"><tspan x="0" y="0">might</tspan></text>
    </g>
    <g id="Group_21" data-name="Group 21" transform="translate(975.652 345.104)">
      <text id="gradually" transform="translate(0 22)" fill="#10243e" font-size="24" font-family="Arial-ItalicMT, Arial" font-style="italic" letter-spacing="0em"><tspan x="0" y="0">gradually</tspan></text>
    </g>
    <g id="Group_22" data-name="Group 22" transform="translate(1084.625 345.104)">
      <text id="change" transform="translate(0 22)" fill="#10243e" font-size="24" font-family="Arial-ItalicMT, Arial" font-style="italic"><tspan x="0" y="0">change</tspan></text>
    </g>
    <g id="Group_23" data-name="Group 23" transform="translate(1174.048 345.104)">
      <text id="into" transform="translate(0 22)" fill="#10243e" font-size="24" font-family="Arial-ItalicMT, Arial" font-style="italic" letter-spacing="0em"><tspan x="0" y="0">into</tspan></text>
    </g>
    <g id="Group_24" data-name="Group 24" transform="translate(658.507 375.252)">
      <text id="more_" data-name="more " transform="translate(0 22)" fill="#10243e" font-size="24" font-family="Arial-ItalicMT, Arial" font-style="italic" letter-spacing="0.001em"><tspan x="0" y="0">more </tspan></text>
    </g>
    <g id="Group_25" data-name="Group 25" transform="translate(722.807 375.252)">
      <text id="stable" transform="translate(0 22)" fill="#10243e" font-size="24" font-family="Arial-ItalicMT, Arial" font-style="italic"><tspan x="0" y="0">stable</tspan></text>
    </g>
    <g id="Group_26" data-name="Group 26" transform="translate(796.843 375.252)">
      <text id="forms" transform="translate(0 22)" fill="#10243e" font-size="24" font-family="Arial-ItalicMT, Arial" font-style="italic" letter-spacing="0em"><tspan x="0" y="0">forms</tspan></text>
    </g>
    <g id="Group_27" data-name="Group 27" transform="translate(866.717 375.252)">
      <text id="of_" data-name="of " transform="translate(0 22)" fill="#10243e" font-size="24" font-family="Arial-ItalicMT, Arial" font-style="italic" letter-spacing="0em"><tspan x="0" y="0">of </tspan></text>
    </g>
    <g id="Group_28" data-name="Group 28" transform="translate(894.667 375.252)">
      <text id="migration" transform="translate(0 22)" fill="#10243e" font-size="24" font-family="Arial-ItalicMT, Arial" font-style="italic" letter-spacing="0.001em"><tspan x="0" y="0">migration</tspan></text>
    </g>
    <g id="Group_29" data-name="Group 29" transform="translate(1005.053 375.252)">
      <text id="and_the_" data-name="and the " transform="translate(-0.053 22.748)" fill="#10243e" font-size="25" font-family="Arial-ItalicMT, Arial" font-style="italic" letter-spacing="0em"><tspan x="0" y="0">and the </tspan></text>
    </g>
    <g id="Group_30" data-name="Group 30" transform="translate(1095.889 375.252)">
      <text id="other" transform="translate(0 22)" fill="#10243e" font-size="24" font-family="Arial-ItalicMT, Arial" font-style="italic" letter-spacing="0em"><tspan x="0" y="0">other</tspan></text>
    </g>
    <g id="Group_31" data-name="Group 31" transform="translate(1160.189 375.252)">
      <text id="way_" data-name="way " transform="translate(-0.19 22.748)" fill="#10243e" font-size="25" font-family="Arial-ItalicMT, Arial" font-style="italic"><tspan x="0" y="0">way </tspan></text>
    </g>
    <g id="Group_32" data-name="Group 32" transform="translate(1211.849 375.252)">
      <text id="around" transform="translate(0 22)" fill="#10243e" font-size="24" font-family="Arial-ItalicMT, Arial" font-style="italic" letter-spacing="0em"><tspan x="0" y="0">around</tspan></text>
    </g>
  </g>
</svg>
